<svg width="45" height="45" fill="none" xmlns="http://www.w3.org/2000/svg"><path fill-rule="evenodd" clip-rule="evenodd" d="M41.824 23.558c-1.669-.347-3.929-.53-6.536-.53-1.076 0-2.092.031-3.032.092V2.417A2.42 2.42 0 0029.839 0H2.417C1.017 0 0 1.164 0 2.769v36.474c0 .955 1.056 2.066 2.417 2.066h23.16v1.01c0 1.49 2.39 1.987 3.175 2.15 1.669.348 3.929.531 6.536.531 2.607 0 4.867-.183 6.536-.53.786-.164 3.176-.66 3.176-2.15V25.707c0-1.49-2.39-1.987-3.176-2.15zm1.858 10.452c-.014.028-.288.512-2.347.907-1.563.3-3.654.46-6.047.46s-4.484-.16-6.047-.46c-2.058-.395-2.333-.88-2.346-.903v-2.57c.69.324 1.47.487 1.858.567 1.668.347 3.928.53 6.535.53s4.867-.183 6.536-.53c.388-.08 1.168-.243 1.858-.566v2.565zm-26.72.136a.66.66 0 00-.658.659v1.67H6.284c-.343 0-.571-.282-.571-.396v-6.548h10.59v2.198a.66.66 0 101.32 0V29.53h7.953v6.944h-7.954v-1.67a.66.66 0 00-.66-.66zm11.25-10.468c-1.01.248-2.636.8-2.636 2.03v2.505h-7.954v-6.944h10.02c.315 0 .57.257.57.572v1.837zm-11.908 4.535H5.713v-6.196c0-.447.23-.747.571-.747h10.02v6.943zm27.378 1.644c-.014.028-.288.512-2.347.908-1.563.3-3.654.458-6.047.458s-4.484-.158-6.047-.458c-2.058-.396-2.333-.88-2.346-.903v-2.57c.69.323 1.47.486 1.858.566 1.668.347 3.928.53 6.535.53s4.867-.183 6.536-.53c.388-.08 1.168-.243 1.858-.566v2.565zm-2.347-5.053c1.988.382 2.312.847 2.344.904-.032.057-.356.522-2.344.904-1.563.3-3.654.458-6.047.458s-4.484-.158-6.047-.458c-1.988-.382-2.312-.847-2.344-.904.032-.057.356-.522 2.344-.904 1.563-.3 3.654-.458 6.047-.458s4.484.158 6.047.458zM2.417 39.99c-.635 0-1.099-.524-1.099-.747v-21.49h21.71a.659.659 0 100-1.317H1.317V2.769c0-.881.432-1.45 1.099-1.45h27.422a1.1 1.1 0 011.099 1.098v14.019h-4.834a.66.66 0 100 1.318h4.834v5.476a24.98 24.98 0 00-1.407.185v-1.574c0-1.042-.848-1.89-1.89-1.89H6.285c-1.077 0-1.89.888-1.89 2.066v14.062c0 .913.884 1.714 1.89 1.714h19.292v2.197H2.417zm38.918 3.233c-1.563.3-3.654.459-6.047.459s-4.484-.159-6.047-.459c-2.058-.395-2.333-.88-2.346-.903v-2.57c.69.324 1.47.486 1.858.567 1.668.347 3.928.53 6.535.53 1.256 0 2.446-.043 3.537-.13a.66.66 0 10-.104-1.314 44.126 44.126 0 01-3.433.126c-2.393 0-4.484-.159-6.047-.459-2.058-.395-2.333-.88-2.346-.903v-2.57c.69.324 1.47.486 1.858.567 1.668.347 3.928.53 6.535.53s4.867-.183 6.536-.53c.388-.08 1.168-.243 1.858-.566v2.564c-.014.028-.257.457-2.001.837a.66.66 0 00.28 1.289c.361-.079 1.075-.235 1.72-.537v2.564c-.013.028-.287.513-2.346.908zM29.619 12.35V5.405c0-1.042-.848-1.89-1.89-1.89H13.185a.66.66 0 100 1.319H27.73c.314 0 .57.256.57.571v6.944a.572.572 0 01-.57.57H6.284a.572.572 0 01-.571-.57V5.405c0-.315.256-.571.571-.571h3.823a.659.659 0 100-1.318H6.284c-1.042 0-1.89.847-1.89 1.89v6.943c0 1.042.848 1.89 1.89 1.89H27.73c1.041 0 1.89-.848 1.89-1.89zM13.843 32.344a.66.66 0 110 1.318H9.097a.66.66 0 110-1.318h4.746zM9.536 25.4h1.274v1.275a.66.66 0 101.319 0V25.4h1.274a.66.66 0 100-1.318H12.13v-1.274a.66.66 0 10-1.319 0v1.274H9.537a.66.66 0 100 1.318zm13.865-2.492a.66.66 0 01.932.932l-.9.901.9.901a.66.66 0 01-.932.933l-.901-.901-.901.9a.66.66 0 01-.932-.932l.9-.9-.9-.902a.66.66 0 01.932-.932l.901.901.901-.901zM21.02 35.169a.658.658 0 00.466-.193l2.988-2.988a.66.66 0 00-.932-.933l-2.988 2.989a.66.66 0 00.466 1.125zm.866-3.836a.66.66 0 11-1.319 0 .66.66 0 011.319 0zm1.977 3.999a.66.66 0 100-1.318.66.66 0 000 1.318zm3.208-25.18a1.54 1.54 0 01-1.538 1.538h-1.23a1.54 1.54 0 01-1.538-1.539V7.603c0-.849.69-1.539 1.538-1.539h1.23c.848 0 1.538.69 1.538 1.539v2.548zm-2.988-2.55v2.55c0 .12.099.22.22.22h1.23a.22.22 0 00.22-.22v-2.55a.22.22 0 00-.22-.22h-1.23a.22.22 0 00-.22.22z" fill="#00A0E3"/><path fill-rule="evenodd" clip-rule="evenodd" d="M41.824 23.558c-1.669-.347-3.929-.53-6.536-.53-1.076 0-2.092.031-3.032.092V2.417A2.42 2.42 0 0029.839 0H2.417C1.017 0 0 1.164 0 2.769v36.474c0 .955 1.056 2.066 2.417 2.066h23.16v1.01c0 1.49 2.39 1.987 3.175 2.15 1.669.348 3.929.531 6.536.531 2.607 0 4.867-.183 6.536-.53.786-.164 3.176-.66 3.176-2.15V25.707c0-1.49-2.39-1.987-3.176-2.15zm1.858 10.452c-.014.028-.288.512-2.347.907-1.563.3-3.654.46-6.047.46s-4.484-.16-6.047-.46c-2.058-.395-2.333-.88-2.346-.903v-2.57c.69.324 1.47.487 1.858.567 1.668.347 3.928.53 6.535.53s4.867-.183 6.536-.53c.388-.08 1.168-.243 1.858-.566v2.565zm-26.72.136a.66.66 0 00-.658.659v1.67H6.284c-.343 0-.571-.282-.571-.396v-6.548h10.59v2.198a.66.66 0 101.32 0V29.53h7.953v6.944h-7.954v-1.67a.66.66 0 00-.66-.66zm11.25-10.468c-1.01.248-2.636.8-2.636 2.03v2.505h-7.954v-6.944h10.02c.315 0 .57.257.57.572v1.837zm-11.908 4.535H5.713v-6.196c0-.447.23-.747.571-.747h10.02v6.943zm27.378 1.644c-.014.028-.288.512-2.347.908-1.563.3-3.654.458-6.047.458s-4.484-.158-6.047-.458c-2.058-.396-2.333-.88-2.346-.903v-2.57c.69.323 1.47.486 1.858.566 1.668.347 3.928.53 6.535.53s4.867-.183 6.536-.53c.388-.08 1.168-.243 1.858-.566v2.565zm-2.347-5.053c1.988.382 2.312.847 2.344.904-.032.057-.356.522-2.344.904-1.563.3-3.654.458-6.047.458s-4.484-.158-6.047-.458c-1.988-.382-2.312-.847-2.344-.904.032-.057.356-.522 2.344-.904 1.563-.3 3.654-.458 6.047-.458s4.484.158 6.047.458zM2.417 39.99c-.635 0-1.099-.524-1.099-.747v-21.49h21.71a.659.659 0 100-1.317H1.317V2.769c0-.881.432-1.45 1.099-1.45h27.422a1.1 1.1 0 011.099 1.098v14.019h-4.834a.66.66 0 100 1.318h4.834v5.476a24.98 24.98 0 00-1.407.185v-1.574c0-1.042-.848-1.89-1.89-1.89H6.285c-1.077 0-1.89.888-1.89 2.066v14.062c0 .913.884 1.714 1.89 1.714h19.292v2.197H2.417zm38.918 3.233c-1.563.3-3.654.459-6.047.459s-4.484-.159-6.047-.459c-2.058-.395-2.333-.88-2.346-.903v-2.57c.69.324 1.47.486 1.858.567 1.668.347 3.928.53 6.535.53 1.256 0 2.446-.043 3.537-.13a.66.66 0 10-.104-1.314 44.126 44.126 0 01-3.433.126c-2.393 0-4.484-.159-6.047-.459-2.058-.395-2.333-.88-2.346-.903v-2.57c.69.324 1.47.486 1.858.567 1.668.347 3.928.53 6.535.53s4.867-.183 6.536-.53c.388-.08 1.168-.243 1.858-.566v2.564c-.014.028-.257.457-2.001.837a.66.66 0 00.28 1.289c.361-.079 1.075-.235 1.72-.537v2.564c-.013.028-.287.513-2.346.908zM29.619 12.35V5.405c0-1.042-.848-1.89-1.89-1.89H13.185a.66.66 0 100 1.319H27.73c.314 0 .57.256.57.571v6.944a.572.572 0 01-.57.57H6.284a.572.572 0 01-.571-.57V5.405c0-.315.256-.571.571-.571h3.823a.659.659 0 100-1.318H6.284c-1.042 0-1.89.847-1.89 1.89v6.943c0 1.042.848 1.89 1.89 1.89H27.73c1.041 0 1.89-.848 1.89-1.89zM13.843 32.344a.66.66 0 110 1.318H9.097a.66.66 0 110-1.318h4.746zM9.536 25.4h1.274v1.275a.66.66 0 101.319 0V25.4h1.274a.66.66 0 100-1.318H12.13v-1.274a.66.66 0 10-1.319 0v1.274H9.537a.66.66 0 100 1.318zm13.865-2.492a.66.66 0 01.932.932l-.9.901.9.901a.66.66 0 01-.932.933l-.901-.901-.901.9a.66.66 0 01-.932-.932l.9-.9-.9-.902a.66.66 0 01.932-.932l.901.901.901-.901zM21.02 35.169a.658.658 0 00.466-.193l2.988-2.988a.66.66 0 00-.932-.933l-2.988 2.989a.66.66 0 00.466 1.125zm.866-3.836a.66.66 0 11-1.319 0 .66.66 0 011.319 0zm1.977 3.999a.66.66 0 100-1.318.66.66 0 000 1.318zm3.208-25.18a1.54 1.54 0 01-1.538 1.538h-1.23a1.54 1.54 0 01-1.538-1.539V7.603c0-.849.69-1.539 1.538-1.539h1.23c.848 0 1.538.69 1.538 1.539v2.548zm-2.988-2.55v2.55c0 .12.099.22.22.22h1.23a.22.22 0 00.22-.22v-2.55a.22.22 0 00-.22-.22h-1.23a.22.22 0 00-.22.22z" fill="url(#paint0_linear)"/><defs><linearGradient id="paint0_linear" x1="45" y1="0" x2="0" y2="0" gradientUnits="userSpaceOnUse"><stop stop-color="#A2D9F7"/><stop offset="1" stop-color="#fff" stop-opacity="0"/></linearGradient></defs></svg>