<svg width="30" height="19" fill="none" xmlns="http://www.w3.org/2000/svg"><path fill-rule="evenodd" clip-rule="evenodd" d="M2.25 9.498c1.54 1.857 6.743 7.536 12.75 7.536 6.02 0 11.213-5.676 12.751-7.534-1.54-1.858-6.744-7.536-12.75-7.536-6.021 0-11.214 5.676-12.752 7.534zM15.106 0h-.214C6.788.075.457 8.556.19 8.919a.978.978 0 000 1.16C.458 10.443 6.844 19 15 19c8.155 0 14.54-8.557 14.808-8.92a.978.978 0 000-1.16C29.543 8.555 23.212.074 15.107 0zM15 5.568c-2.181 0-3.956 1.763-3.956 3.931S12.818 13.43 15 13.43s3.956-1.763 3.956-3.93c0-2.169-1.775-3.932-3.956-3.932zm0 9.828c-3.272 0-5.934-2.645-5.934-5.897 0-3.251 2.662-5.897 5.934-5.897 3.272 0 5.934 2.646 5.934 5.897 0 3.252-2.662 5.897-5.934 5.897z" fill="#fff"/></svg>