<svg width="30" height="25" fill="none" xmlns="http://www.w3.org/2000/svg"><path d="M12.5 7.355L18.98 11l-6.48 3.645v-7.29zm-.75 8.577a.5.5 0 00.498.004l8-4.5a.5.5 0 000-.871l-8-4.5a.5.5 0 00-.748.435v9a.5.5 0 00.25.432zM10 20H9v1H2v1h7v1h1v-1h18v-1H10v-1z" fill="#fff"/><path d="M15 4a7 7 0 11-7 7 7.007 7.007 0 017-7zm0 15a8 8 0 10-8-8 8.01 8.01 0 008 8z" fill="#fff"/><path d="M29 23.5a.5.5 0 01-.5.5h-27a.5.5 0 01-.5-.5v-22a.5.5 0 01.5-.5h27a.5.5 0 01.5.5v22zM28.5 0h-27A1.5 1.5 0 000 1.5v22A1.5 1.5 0 001.5 25h27a1.5 1.5 0 001.5-1.5v-22A1.5 1.5 0 0028.5 0z" fill="#fff"/><path d="M2 3h1V2H2v1zm2 0h1V2H4v1zm2 0h1V2H6v1z" fill="#fff"/></svg>