<svg width="45" height="45" fill="none" xmlns="http://www.w3.org/2000/svg"><path fill-rule="evenodd" clip-rule="evenodd" d="M43.682 18.457h-14.59v-3.955c0-.445-.021-.884-.06-1.318h1.378c.728 0 1.319-.59 1.319-1.319V6.592a3.96 3.96 0 00-3.956-3.955h-4.855A14.421 14.421 0 0014.59 0C6.545 0 0 6.506 0 14.502s6.545 14.502 14.59 14.502h13.183c.729 0 1.319-.59 1.319-1.319v-1.318h13.271v1.319a1.318 1.318 0 002.637 0v-7.91c0-.729-.59-1.319-1.318-1.319zm-17.227 1.318v6.592H14.59c-6.591 0-11.953-5.323-11.953-11.865 0-6.543 5.362-11.865 11.953-11.865 6.542 0 11.865 5.322 11.865 11.865v5.273zm2.089-9.228a14.48 14.48 0 00-2.776-5.274h2.005a1.32 1.32 0 011.319 1.319v3.955h-.548zm8.458 13.183h-7.91v-2.636h7.91v2.636zm5.361 0H39.64v-2.636h2.724v2.636zM7.998 14.502A6.6 6.6 0 0114.59 7.91a6.6 6.6 0 016.592 6.592 6.6 6.6 0 01-6.592 6.592 6.6 6.6 0 01-6.592-6.592zm2.637 0a3.96 3.96 0 003.955 3.955 3.96 3.96 0 003.955-3.955 3.96 3.96 0 00-3.955-3.955 3.96 3.96 0 00-3.955 3.955zm13.183 7.91a1.318 1.318 0 11-2.636 0 1.318 1.318 0 012.636 0zM0 35.772c0-.729.59-1.319 1.318-1.319h42.364c.728 0 1.318.59 1.318 1.319v7.91C45 44.41 44.41 45 43.682 45H1.318C.59 45 0 44.41 0 43.682v-7.91zm2.637 1.318v5.273h39.726V37.09h-6.68v1.318a1.318 1.318 0 01-2.636 0V37.09h-5.274v1.318a1.318 1.318 0 11-2.636 0V37.09h-5.274v1.318a1.318 1.318 0 01-2.636 0V37.09h-5.274v1.318a1.318 1.318 0 11-2.637 0V37.09h-6.68z" fill="#00A0E3"/><path fill-rule="evenodd" clip-rule="evenodd" d="M43.682 18.457h-14.59v-3.955c0-.445-.021-.884-.06-1.318h1.378c.728 0 1.319-.59 1.319-1.319V6.592a3.96 3.96 0 00-3.956-3.955h-4.855A14.421 14.421 0 0014.59 0C6.545 0 0 6.506 0 14.502s6.545 14.502 14.59 14.502h13.183c.729 0 1.319-.59 1.319-1.319v-1.318h13.271v1.319a1.318 1.318 0 002.637 0v-7.91c0-.729-.59-1.319-1.318-1.319zm-17.227 1.318v6.592H14.59c-6.591 0-11.953-5.323-11.953-11.865 0-6.543 5.362-11.865 11.953-11.865 6.542 0 11.865 5.322 11.865 11.865v5.273zm2.089-9.228a14.48 14.48 0 00-2.776-5.274h2.005a1.32 1.32 0 011.319 1.319v3.955h-.548zm8.458 13.183h-7.91v-2.636h7.91v2.636zm5.361 0H39.64v-2.636h2.724v2.636zM7.998 14.502A6.6 6.6 0 0114.59 7.91a6.6 6.6 0 016.592 6.592 6.6 6.6 0 01-6.592 6.592 6.6 6.6 0 01-6.592-6.592zm2.637 0a3.96 3.96 0 003.955 3.955 3.96 3.96 0 003.955-3.955 3.96 3.96 0 00-3.955-3.955 3.96 3.96 0 00-3.955 3.955zm13.183 7.91a1.318 1.318 0 11-2.636 0 1.318 1.318 0 012.636 0zM0 35.772c0-.729.59-1.319 1.318-1.319h42.364c.728 0 1.318.59 1.318 1.319v7.91C45 44.41 44.41 45 43.682 45H1.318C.59 45 0 44.41 0 43.682v-7.91zm2.637 1.318v5.273h39.726V37.09h-6.68v1.318a1.318 1.318 0 01-2.636 0V37.09h-5.274v1.318a1.318 1.318 0 11-2.636 0V37.09h-5.274v1.318a1.318 1.318 0 01-2.636 0V37.09h-5.274v1.318a1.318 1.318 0 11-2.637 0V37.09h-6.68z" fill="url(#paint0_linear)"/><defs><linearGradient id="paint0_linear" x1="45" y1="0" x2="0" y2="0" gradientUnits="userSpaceOnUse"><stop stop-color="#A2D9F7"/><stop offset="1" stop-color="#fff" stop-opacity="0"/></linearGradient></defs></svg>