<svg width="62" height="74" fill="none" xmlns="http://www.w3.org/2000/svg"><path fill-rule="evenodd" clip-rule="evenodd" d="M31.62.09l28.845 8.655A2.154 2.154 0 0162 10.808v31.73c0 4.128-1.67 8.352-4.966 12.557-2.516 3.212-5.998 6.437-10.348 9.586-7.307 5.29-14.503 8.534-14.805 8.67a2.151 2.151 0 01-1.761 0c-.303-.136-7.498-3.38-14.806-8.67-4.35-3.15-7.832-6.374-10.348-9.586C1.67 50.89 0 46.665 0 42.538v-31.73c0-.951.624-1.79 1.535-2.063L30.381.09a2.153 2.153 0 011.238 0zm12.595 61.06c6.148-4.46 13.476-11.308 13.476-18.612V12.411l-26.69-8.007L4.308 12.41v30.127c0 7.304 7.328 14.153 13.476 18.612 5.512 3.998 11.102 6.834 13.215 7.854 2.114-1.02 7.703-3.856 13.215-7.854zm-7.876-26.508V19.793A5.8 5.8 0 0030.546 14a5.8 5.8 0 00-5.794 5.794v14.848a10.546 10.546 0 00-4.75 9.012 10.483 10.483 0 003.112 7.267A10.485 10.485 0 0030.547 54a10.47 10.47 0 007.404-3.037 10.47 10.47 0 003.14-7.509 10.57 10.57 0 00-4.752-8.812zm-.067 14.62a8.104 8.104 0 01-5.843 2.346c-4.351-.06-7.956-3.649-8.037-7.999a8.16 8.16 0 014.144-7.258c.375-.212.607-.61.607-1.04V19.793a3.407 3.407 0 013.403-3.403 3.407 3.407 0 013.403 3.403v1.375H32.4a1.195 1.195 0 100 2.39h1.548v2.079H32.4a1.195 1.195 0 000 2.39h1.548v2.08H32.4a1.195 1.195 0 100 2.39h1.548v2.814c0 .43.232.828.606 1.04a8.176 8.176 0 014.146 7.103c0 2.2-.863 4.262-2.43 5.807zm-4.53-10.636v-3.614a1.195 1.195 0 00-2.391 0v3.614a4.982 4.982 0 00-3.78 4.828 4.98 4.98 0 004.975 4.974 4.98 4.98 0 004.974-4.974 4.983 4.983 0 00-3.779-4.828zm-1.196 7.412a2.587 2.587 0 01-2.584-2.584 2.587 2.587 0 012.584-2.584 2.586 2.586 0 012.584 2.584 2.587 2.587 0 01-2.584 2.584z" fill="#53AF30"/></svg>