<svg width="62" height="74" fill="none" xmlns="http://www.w3.org/2000/svg"><path fill-rule="evenodd" clip-rule="evenodd" d="M31.62.09l28.845 8.655A2.154 2.154 0 0162 10.808v31.73c0 4.128-1.67 8.352-4.966 12.557-2.516 3.212-5.998 6.437-10.348 9.586-7.307 5.29-14.503 8.534-14.805 8.67a2.151 2.151 0 01-1.761 0c-.303-.136-7.498-3.38-14.806-8.67-4.35-3.15-7.832-6.374-10.348-9.586C1.67 50.89 0 46.665 0 42.538v-31.73c0-.951.624-1.79 1.535-2.063L30.381.09a2.153 2.153 0 011.238 0zm12.595 61.06c6.148-4.46 13.476-11.308 13.476-18.612V12.411l-26.69-8.007L4.308 12.41v30.127c0 7.304 7.328 14.153 13.476 18.612 5.512 3.998 11.102 6.834 13.215 7.854 2.114-1.02 7.703-3.856 13.215-7.854zM38.98 25.324a1.199 1.199 0 011.697-.01c2.273 2.247 3.523 5.259 3.523 8.487 0 3.228-1.25 6.24-3.523 8.484a1.196 1.196 0 01-1.697-.007 1.197 1.197 0 01.01-1.697c1.812-1.793 2.81-4.2 2.81-6.78s-.998-4.987-2.81-6.78a1.2 1.2 0 01-.01-1.697zm-5.059-8.205c-.418-.2-.91-.146-1.27.144l-11.673 9.338H15.4a2.404 2.404 0 00-2.4 2.4v9.6c0 1.323 1.078 2.4 2.4 2.4h5.578l11.671 9.34a1.212 1.212 0 001.272.143c.415-.202.68-.622.68-1.082v-31.2c0-.461-.265-.881-.68-1.083zm-13.72 21.483H15.4v-9.6h4.8v9.6zm12 8.301l-9.6-7.68V28.38l9.6-7.68v26.203zM42.363 21.94a1.2 1.2 0 011.697-.007A16.595 16.595 0 0149 33.8c0 4.495-1.755 8.71-4.94 11.868a1.196 1.196 0 01-1.696-.007 1.2 1.2 0 01.007-1.697A14.216 14.216 0 0046.6 33.801c0-3.85-1.503-7.46-4.229-10.164a1.2 1.2 0 01-.007-1.697z" fill="#53AF30"/></svg>