<svg width="62" height="74" fill="none" xmlns="http://www.w3.org/2000/svg"><path fill-rule="evenodd" clip-rule="evenodd" d="M31.62.09l28.845 8.655A2.154 2.154 0 0162 10.808v31.73c0 4.128-1.67 8.352-4.966 12.557-2.516 3.212-5.998 6.437-10.348 9.586-7.307 5.29-14.503 8.534-14.805 8.67a2.151 2.151 0 01-1.761 0c-.303-.136-7.498-3.38-14.806-8.67-4.35-3.15-7.832-6.374-10.348-9.586C1.67 50.89 0 46.665 0 42.538v-31.73c0-.951.624-1.79 1.535-2.063L30.381.09a2.153 2.153 0 011.238 0zm12.595 61.06c6.148-4.46 13.476-11.308 13.476-18.612V12.411l-26.69-8.007L4.308 12.41v30.127c0 7.304 7.328 14.153 13.476 18.612 5.512 3.998 11.102 6.834 13.215 7.854 2.114-1.02 7.703-3.856 13.215-7.854zM20.875 34c0 5.583 4.542 10.125 10.125 10.125S41.125 39.583 41.125 34 36.583 23.875 31 23.875 20.875 28.417 20.875 34zm2.25 0c0-4.342 3.533-7.875 7.875-7.875 4.342 0 7.875 3.533 7.875 7.875 0 4.342-3.533 7.875-7.875 7.875-4.342 0-7.875-3.533-7.875-7.875zM31 21.625a1.125 1.125 0 01-1.125-1.125v-3.375a1.125 1.125 0 112.25 0V20.5c0 .621-.504 1.125-1.125 1.125zm-1.125 29.25a1.125 1.125 0 102.25 0V47.5a1.125 1.125 0 10-2.25 0v3.375zm18-15.75H44.5a1.125 1.125 0 110-2.25h3.375a1.125 1.125 0 110 2.25zm-33.75 0H17.5a1.125 1.125 0 100-2.25h-3.375a1.125 1.125 0 100 2.25zm26.421-9.546c-.993 0-1.506-1.21-.795-1.92l2.386-2.387a1.125 1.125 0 111.591 1.591l-2.386 2.387c-.22.22-.508.33-.796.33zM18.272 45.137c-.71.71-.198 1.92.796 1.92.287 0 .575-.11.795-.329l2.387-2.387a1.125 1.125 0 10-1.591-1.59l-2.387 2.386zm24.66 1.92c-.288 0-.575-.11-.795-.329l-2.386-2.386a1.125 1.125 0 111.59-1.591l2.387 2.386c.71.71.198 1.92-.796 1.92zM20.658 25.25c.22.22.508.33.796.33.993 0 1.506-1.21.795-1.921l-2.386-2.387a1.125 1.125 0 10-1.591 1.591l2.387 2.387z" fill="#53AF30"/></svg>