<svg width="148" height="148" fill="none" xmlns="http://www.w3.org/2000/svg"><path d="M81.091 135.161a1.15 1.15 0 11-2.243-.506l10.857-48.144-10.59-11.741c-.4-.445-.39-1.116.007-1.548L97.23 53.146l9.089-40.308a1.15 1.15 0 012.248.015l5.002 22.18 20.487-22.712a1.152 1.152 0 011.713 1.542l-21.58 23.923 21.845 96.872a1.15 1.15 0 01-1.977 1.022L91.593 88.605l-10.499 46.557-.003-.001zm9.233-51.401l5.87-26.028L81.52 73.999l8.803 9.761zm17.116-65.442l-7.069 31.343 11.31-12.537-4.241-18.806zm-8.102 35.93l-7.127 31.604 40.61 45.021-20.52-90.996-12.963 14.372v-.001z" fill="#8FC778"/><path d="M1.154 0h145.692c.637 0 1.154.517 1.154 1.154v145.692c0 .637-.517 1.154-1.154 1.154H1.154A1.154 1.154 0 010 146.846V1.154C0 .517.517 0 1.154 0zm11.938 11.937h54.94c.637 0 1.154.516 1.154 1.154v121.817c0 .637-.517 1.154-1.154 1.154h-54.94a1.154 1.154 0 01-1.154-1.154V13.091c0-.638.517-1.154 1.154-1.154zm53.787 2.308H14.246v119.51h52.633V14.245zm13.09-2.308h54.94c.638 0 1.154.516 1.154 1.154v121.817c0 .637-.516 1.154-1.154 1.154h-54.94a1.154 1.154 0 01-1.153-1.154V13.091c0-.638.516-1.154 1.154-1.154zm53.786 2.308H81.122v119.51h52.633V14.245zm11.937-11.937H2.306v143.386h143.386V2.308z" fill="#00A0E3"/></svg>