<svg width="45" height="45" fill="none" xmlns="http://www.w3.org/2000/svg"><path fill-rule="evenodd" clip-rule="evenodd" d="M38.143 6.791c3.59 3.59 5.927 8.102 6.772 13.06a1.258 1.258 0 01-1.045 1.462l-.023.003a1.274 1.274 0 01-1.459-1.048c-.75-4.426-2.84-8.462-6.05-11.672-3.21-3.2-7.246-5.3-11.672-6.05a1.288 1.288 0 01-1.054-1.482A1.277 1.277 0 0125.084.02c4.958.845 9.47 3.181 13.06 6.771zm-2.611 21.085c-.922-.96-2.033-1.472-3.21-1.472-1.169 0-2.29.503-3.249 1.462l-3.001 2.992a27.04 27.04 0 00-.487-.254 41.614 41.614 0 01-.244-.126c-.342-.17-.665-.332-.94-.503-2.812-1.786-5.367-4.113-7.817-7.123-1.187-1.5-1.985-2.764-2.564-4.046a53.99 53.99 0 001.999-1.959l.204-.207.399-.403c.133-.136.266-.271.399-.404 1.994-1.995 1.994-4.578 0-6.572l-2.593-2.593a39.47 39.47 0 01-.883-.902 44.831 44.831 0 00-1.786-1.767c-.921-.912-2.023-1.396-3.182-1.396-1.158 0-2.279.484-3.229 1.396l-.019.019L2.1 7.276a6.948 6.948 0 00-2.06 4.416c-.229 2.773.588 5.357 1.215 7.047 1.538 4.15 3.837 7.997 7.265 12.12 4.16 4.966 9.166 8.889 14.883 11.653 2.184 1.035 5.1 2.26 8.358 2.469.2.01.408.019.598.019 2.194 0 4.037-.788 5.48-2.355a.092.092 0 01.02-.024c.006-.007.014-.014.018-.024.458-.554.98-1.059 1.53-1.59l.132-.129c.409-.39.827-.798 1.235-1.225.94-.978 1.434-2.118 1.434-3.286 0-1.178-.503-2.308-1.462-3.258l-5.215-5.233zm3.4 10c-.305.328-.615.63-.943.949l-.216.21c-.617.59-1.244 1.207-1.833 1.9-.96 1.026-2.09 1.51-3.571 1.51-.143 0-.295 0-.437-.01-2.82-.18-5.442-1.282-7.408-2.222-5.376-2.602-10.096-6.297-14.019-10.979-3.238-3.904-5.404-7.513-6.838-11.388-.883-2.364-1.206-4.207-1.064-5.945a4.36 4.36 0 011.311-2.82l3.239-3.24c.465-.436.959-.674 1.443-.674.599 0 1.083.361 1.387.665l.028.029c.58.54 1.13 1.101 1.71 1.7.148.153.3.306.451.46l.451.46 2.593 2.594c1.007 1.006 1.007 1.937 0 2.944a59.02 59.02 0 00-.274.276c-.18.183-.36.364-.543.54a49.56 49.56 0 01-2.383 2.318l-.02.018c-.012.01-.022.017-.028.03-.817.816-.665 1.614-.494 2.156l.029.085c.674 1.634 1.624 3.172 3.067 5.005l.01.01c2.621 3.229 5.385 5.746 8.434 7.674.389.247.788.446 1.168.636.342.171.665.332.94.503.02.01.038.022.057.034a2.06 2.06 0 00.997.27c.789 0 1.282-.494 1.444-.655l3.248-3.248c.323-.323.836-.712 1.434-.712.59 0 1.074.37 1.368.693l.019.019 5.233 5.233c.978.969.978 1.966.01 2.973zM24.286 10.705c2.489.418 4.75 1.596 6.554 3.4a12.107 12.107 0 013.4 6.554 1.274 1.274 0 001.459 1.047l.022-.002a1.283 1.283 0 001.055-1.482 14.648 14.648 0 00-4.113-7.93 14.649 14.649 0 00-7.93-4.113 1.289 1.289 0 00-1.482 1.045 1.268 1.268 0 001.035 1.481z" fill="#00A0E3"/><path fill-rule="evenodd" clip-rule="evenodd" d="M38.143 6.791c3.59 3.59 5.927 8.102 6.772 13.06a1.258 1.258 0 01-1.045 1.462l-.023.003a1.274 1.274 0 01-1.459-1.048c-.75-4.426-2.84-8.462-6.05-11.672-3.21-3.2-7.246-5.3-11.672-6.05a1.288 1.288 0 01-1.054-1.482A1.277 1.277 0 0125.084.02c4.958.845 9.47 3.181 13.06 6.771zm-2.611 21.085c-.922-.96-2.033-1.472-3.21-1.472-1.169 0-2.29.503-3.249 1.462l-3.001 2.992a27.04 27.04 0 00-.487-.254 41.614 41.614 0 01-.244-.126c-.342-.17-.665-.332-.94-.503-2.812-1.786-5.367-4.113-7.817-7.123-1.187-1.5-1.985-2.764-2.564-4.046a53.99 53.99 0 001.999-1.959l.204-.207.399-.403c.133-.136.266-.271.399-.404 1.994-1.995 1.994-4.578 0-6.572l-2.593-2.593a39.47 39.47 0 01-.883-.902 44.831 44.831 0 00-1.786-1.767c-.921-.912-2.023-1.396-3.182-1.396-1.158 0-2.279.484-3.229 1.396l-.019.019L2.1 7.276a6.948 6.948 0 00-2.06 4.416c-.229 2.773.588 5.357 1.215 7.047 1.538 4.15 3.837 7.997 7.265 12.12 4.16 4.966 9.166 8.889 14.883 11.653 2.184 1.035 5.1 2.26 8.358 2.469.2.01.408.019.598.019 2.194 0 4.037-.788 5.48-2.355a.092.092 0 01.02-.024c.006-.007.014-.014.018-.024.458-.554.98-1.059 1.53-1.59l.132-.129c.409-.39.827-.798 1.235-1.225.94-.978 1.434-2.118 1.434-3.286 0-1.178-.503-2.308-1.462-3.258l-5.215-5.233zm3.4 10c-.305.328-.615.63-.943.949l-.216.21c-.617.59-1.244 1.207-1.833 1.9-.96 1.026-2.09 1.51-3.571 1.51-.143 0-.295 0-.437-.01-2.82-.18-5.442-1.282-7.408-2.222-5.376-2.602-10.096-6.297-14.019-10.979-3.238-3.904-5.404-7.513-6.838-11.388-.883-2.364-1.206-4.207-1.064-5.945a4.36 4.36 0 011.311-2.82l3.239-3.24c.465-.436.959-.674 1.443-.674.599 0 1.083.361 1.387.665l.028.029c.58.54 1.13 1.101 1.71 1.7.148.153.3.306.451.46l.451.46 2.593 2.594c1.007 1.006 1.007 1.937 0 2.944a59.02 59.02 0 00-.274.276c-.18.183-.36.364-.543.54a49.56 49.56 0 01-2.383 2.318l-.02.018c-.012.01-.022.017-.028.03-.817.816-.665 1.614-.494 2.156l.029.085c.674 1.634 1.624 3.172 3.067 5.005l.01.01c2.621 3.229 5.385 5.746 8.434 7.674.389.247.788.446 1.168.636.342.171.665.332.94.503.02.01.038.022.057.034a2.06 2.06 0 00.997.27c.789 0 1.282-.494 1.444-.655l3.248-3.248c.323-.323.836-.712 1.434-.712.59 0 1.074.37 1.368.693l.019.019 5.233 5.233c.978.969.978 1.966.01 2.973zM24.286 10.705c2.489.418 4.75 1.596 6.554 3.4a12.107 12.107 0 013.4 6.554 1.274 1.274 0 001.459 1.047l.022-.002a1.283 1.283 0 001.055-1.482 14.648 14.648 0 00-4.113-7.93 14.649 14.649 0 00-7.93-4.113 1.289 1.289 0 00-1.482 1.045 1.268 1.268 0 001.035 1.481z" fill="url(#paint0_linear)"/><defs><linearGradient id="paint0_linear" x1="44.935" y1="0" x2="0" y2="0" gradientUnits="userSpaceOnUse"><stop stop-color="#A2D9F7"/><stop offset="1" stop-color="#fff" stop-opacity="0"/></linearGradient></defs></svg>