<svg width="147" height="148" fill="none" xmlns="http://www.w3.org/2000/svg"><path d="M80.543 135.16a1.142 1.142 0 01-1.364.87 1.15 1.15 0 01-.864-1.374l10.783-48.145-10.52-11.741a1.158 1.158 0 01.007-1.548l17.986-20.076 9.028-40.308c.138-.62.75-1.008 1.365-.87.45.102.778.458.867.884l4.968 22.18 20.349-22.712a1.138 1.138 0 011.615-.086c.47.425.508 1.154.085 1.627l-21.433 23.923 21.697 96.872a1.15 1.15 0 01-.864 1.374 1.137 1.137 0 01-1.099-.353L90.972 88.602 80.544 135.16zm-66.69.518a1.139 1.139 0 01-1.615.086 1.158 1.158 0 01-.085-1.627L66.03 73.999 12.153 13.861a1.157 1.157 0 01.085-1.627 1.139 1.139 0 011.615.086l54.563 60.902c.394.431.404 1.103.006 1.548l-54.569 60.909v-.001zM89.714 83.76l5.83-26.029L80.97 74l8.744 9.76zm16.999-65.443l-7.02 31.343 11.233-12.537-4.212-18.806h-.001zm-8.047 35.93L91.588 85.85l40.335 45.022-20.381-90.997-12.876 14.372z" fill="#8FC778"/><path d="M1.146 0h144.708A1.15 1.15 0 01147 1.153v145.693a1.15 1.15 0 01-1.146 1.154H1.146A1.15 1.15 0 010 146.846V1.153A1.15 1.15 0 011.146 0zm11.857 11.937h54.569a1.15 1.15 0 011.145 1.154v121.818a1.15 1.15 0 01-1.145 1.153h-54.57a1.15 1.15 0 01-1.145-1.153V13.091a1.15 1.15 0 011.146-1.154zm53.423 2.307H14.15v119.511h52.277V14.245zm13.003-2.307h54.569a1.15 1.15 0 011.145 1.154v121.818a1.15 1.15 0 01-1.145 1.153h-54.57a1.15 1.15 0 01-1.145-1.153V13.091a1.15 1.15 0 011.146-1.154zm53.423 2.307H80.575v119.511h52.277V14.245zm11.856-11.937H2.292v143.386h142.416V2.307z" fill="#00A0E3"/></svg>