<svg width="199" height="148" fill="none" xmlns="http://www.w3.org/2000/svg"><path d="M13.882 135.678a1.143 1.143 0 01-1.619.086 1.156 1.156 0 01-.085-1.627l53.989-60.138-53.989-60.138a1.156 1.156 0 01.085-1.627 1.143 1.143 0 011.62.086l54.673 60.9c.394.432.405 1.104.006 1.549l-54.68 60.908zm119.482-.518a1.144 1.144 0 11-2.233-.504l10.805-48.144-10.541-11.742a1.157 1.157 0 01.007-1.548l18.023-20.076 9.046-40.308a1.144 1.144 0 012.236.015l4.978 22.18 20.391-22.713a1.143 1.143 0 011.619-.085c.47.425.508 1.154.085 1.626l-21.477 23.924 21.741 96.871a1.15 1.15 0 01-.866 1.374 1.143 1.143 0 01-1.102-.352l-42.263-47.075-10.45 46.558.001-.001zm9.19-51.4l5.841-26.028L133.792 74l8.762 9.76zm17.034-65.442l-7.034 31.344 11.255-12.538-4.221-18.806zm-8.064 35.93l-7.093 31.604 40.419 45.022-20.423-90.998-12.903 14.372z" fill="#8FC778"/><path d="M1.148 0h196.704A1.15 1.15 0 01199 1.154v145.693c0 .637-.514 1.154-1.148 1.154H1.148A1.152 1.152 0 010 146.847V1.154C0 .517.514 0 1.148 0zm119.028 14.244H79.782v119.511h40.394V14.245zm-41.541-2.307h42.689c.634 0 1.149.517 1.149 1.154V134.91c0 .637-.514 1.154-1.149 1.154h-42.69a1.152 1.152 0 01-1.148-1.154V13.091c0-.637.514-1.154 1.149-1.154zm-65.605 0h54.681c.634 0 1.149.517 1.149 1.154V134.91c0 .637-.514 1.154-1.149 1.154H13.03a1.152 1.152 0 01-1.148-1.154V13.091c0-.637.514-1.154 1.148-1.154zm53.533 2.307H14.178v119.511h52.385V14.245zm65.685-2.307h54.68c.634 0 1.149.517 1.149 1.154V134.91c0 .637-.514 1.154-1.149 1.154h-54.68a1.152 1.152 0 01-1.149-1.154V13.091c0-.637.514-1.154 1.149-1.154zm53.532 2.307h-52.384v119.511h52.384V14.245zm10.924-11.937H2.297v143.386h194.407V2.307z" fill="#00A0E3"/></svg>