<svg width="28" height="28" fill="none" xmlns="http://www.w3.org/2000/svg"><path fill-rule="evenodd" clip-rule="evenodd" d="M23.754 4.226a14.995 14.995 0 014.213 8.125.782.782 0 01-.65.91l-.006.002c-.044.005-.084.01-.13.01a.793.793 0 01-.785-.662A13.388 13.388 0 0022.63 5.35a13.426 13.426 0 00-7.263-3.765.802.802 0 01-.656-.922.795.795 0 01.916-.65 14.994 14.994 0 018.126 4.213zm-1.625 13.12c-.573-.598-1.265-.917-1.998-.917-.726 0-1.424.313-2.02.91L16.242 19.2c-.104-.057-.208-.11-.31-.162l-.145-.075a7.537 7.537 0 01-.585-.313c-1.75-1.111-3.34-2.559-4.864-4.432-.738-.934-1.235-1.72-1.595-2.518.44-.402.85-.819 1.25-1.224l.12-.123.247-.25.25-.253c1.241-1.24 1.241-2.848 0-4.089L8.998 4.15a24.73 24.73 0 01-.55-.562 27.973 27.973 0 00-1.11-1.099c-.574-.567-1.26-.868-1.98-.868-.722 0-1.419.3-2.01.868l-.012.012-2.009 2.027A4.326 4.326 0 00.045 7.275C-.097 9 .41 10.608.8 11.66c.957 2.583 2.388 4.976 4.521 7.54 2.588 3.091 5.703 5.532 9.26 7.252 1.36.644 3.174 1.406 5.2 1.536.125.006.255.012.373.012 1.365 0 2.512-.49 3.41-1.466a.059.059 0 01.012-.015l.008-.009.003-.005c.098-.118.2-.232.305-.344.229-.244.475-.479.73-.726a22.9 22.9 0 00.768-.762c.585-.61.892-1.318.892-2.045 0-.733-.313-1.436-.91-2.027l-3.244-3.256zm2.115 6.222c-.19.204-.384.393-.589.593l-.132.127c-.186.178-.373.36-.558.55-.198.2-.393.41-.582.633-.597.638-1.3.94-2.222.94-.089 0-.183 0-.272-.007-1.755-.112-3.386-.798-4.61-1.383-3.344-1.619-6.281-3.918-8.722-6.831-2.015-2.429-3.362-4.675-4.255-7.086-.55-1.471-.75-2.618-.662-3.699.06-.691.325-1.264.816-1.755L4.47 3.635c.078-.074.158-.138.238-.193a1.5 1.5 0 01.161-.096 1.08 1.08 0 01.5-.13c.372 0 .673.224.862.413l.018.017a24.845 24.845 0 011.063 1.059l.237.241.325.332L9.488 6.89c.627.626.627 1.206 0 1.832l-.231.233c-.092.093-.184.185-.277.275-.306.313-.603.613-.906.905-.189.181-.38.36-.577.537l-.013.011-.01.008-.007.01c-.508.509-.414 1.005-.307 1.342l.018.053c.42 1.017 1.01 1.974 1.908 3.114l.006.007c1.631 2.009 3.351 3.575 5.248 4.775.106.067.213.129.32.186.137.074.274.143.407.21.108.053.213.106.313.159l.1.054a3.4 3.4 0 01.172.1c.024.011.047.029.07.041.202.1.39.148.586.148.49 0 .798-.308.898-.408l2.021-2.021c.201-.201.52-.444.893-.444.366 0 .667.23.85.432l.012.012 3.257 3.256c.608.603.608 1.223.005 1.85zM15.132 6.66a7.49 7.49 0 014.077 2.115 7.532 7.532 0 012.116 4.078.793.793 0 00.908.651l.014-.001a.799.799 0 00.656-.922 9.115 9.115 0 00-2.559-4.935 9.115 9.115 0 00-4.934-2.559.802.802 0 00-.922.65.79.79 0 00.644.923z" fill="#fff"/></svg>