<svg width="28" height="22" fill="none" xmlns="http://www.w3.org/2000/svg"><path fill-rule="evenodd" clip-rule="evenodd" d="M3.424.346h21.158A3.423 3.423 0 0128 3.776V18.23a3.427 3.427 0 01-3.424 3.424H3.424A3.427 3.427 0 010 18.23V3.77A3.427 3.427 0 013.424.346zM24.582 20.09c1.025 0 1.86-.834 1.86-1.86h-.006V3.775c0-1.025-.834-1.86-1.86-1.86H3.424c-1.025 0-1.86.835-1.86 1.86V18.23c0 1.026.835 1.86 1.86 1.86h21.158zm-.076-15.411l-6.847 6.14 6.877 6.53a.781.781 0 11-1.078 1.136l-6.964-6.617-1.952 1.75a.777.777 0 01-1.043.006l-1.9-1.698-7.005 6.553a.784.784 0 01-1.106-.04.785.785 0 01.034-1.107l6.9-6.46-6.928-6.193a.781.781 0 01-.064-1.107.781.781 0 011.106-.064l7.497 6.71c.046.034.087.069.128.11 0 .005.005.01.011.017l1.842 1.645 9.444-8.476a.786.786 0 011.107.058c.29.325.26.817-.059 1.107z" fill="#fff"/></svg>