<svg width="28" height="28" fill="none" xmlns="http://www.w3.org/2000/svg"><path d="M11.184 25.08v2.836l-.686-.554c-.106-.086-2.627-2.132-5.183-5.067C1.788 18.245 0 14.61 0 11.493v-.31C0 5.018 5.017 0 11.184 0c6.166 0 11.183 5.017 11.183 11.184v.309c0 .262-.014.528-.039.797l-2.187-1.995c-.448-4.548-4.294-8.113-8.957-8.113-4.964 0-9.002 4.038-9.002 9.002v.309c0 5.27 6.79 11.65 9.002 13.587zm6.71-1.567h3.273v-3.274h-3.273v3.274zm-6.71-16.967a4.642 4.642 0 014.637 4.638 4.642 4.642 0 01-4.637 4.637 4.642 4.642 0 01-4.638-4.637 4.642 4.642 0 014.638-4.638zm0 2.183a2.458 2.458 0 00-2.455 2.455 2.458 2.458 0 002.455 2.455 2.458 2.458 0 002.455-2.455 2.458 2.458 0 00-2.455-2.455zm15.345 13.3l-.613-.559v3.503a2.962 2.962 0 01-2.959 2.959H16.05a2.962 2.962 0 01-2.959-2.959V21.47l-.613.56-1.47-1.612 8.496-7.752L28 20.418l-1.47 1.612zm-2.795-2.55l-4.231-3.86-4.23 3.86v5.494c0 .428.348.777.776.777h6.908a.777.777 0 00.777-.777V19.48z" fill="#fff"/></svg>