<svg width="64" height="40" fill="none" xmlns="http://www.w3.org/2000/svg"><path fill-rule="evenodd" clip-rule="evenodd" d="M4.734 19.997C7.977 23.905 18.931 35.86 31.578 35.86c12.675 0 23.606-11.95 26.845-15.862-3.245-3.91-14.198-15.865-26.845-15.865-12.674 0-23.605 11.95-26.844 15.862zM31.804 0h-.452C14.291.157.962 18.014.401 18.777a2.06 2.06 0 000 2.442C.964 21.986 14.409 40 31.578 40c17.17 0 30.614-18.014 31.178-18.78a2.059 2.059 0 000-2.443C62.194 18.014 48.866.157 31.804 0zm-.226 11.722c-4.592 0-8.328 3.713-8.328 8.276 0 4.564 3.736 8.277 8.328 8.277 4.593 0 8.329-3.713 8.329-8.277 0-4.564-3.736-8.276-8.329-8.276zm0 20.691c-6.888 0-12.492-5.569-12.492-12.414 0-6.846 5.604-12.415 12.492-12.415 6.889 0 12.493 5.569 12.493 12.415 0 6.845-5.604 12.414-12.493 12.414z" fill="#fff"/></svg>