<svg width="19" height="16" fill="none" xmlns="http://www.w3.org/2000/svg"><path fill-rule="evenodd" clip-rule="evenodd" d="M9.49.156l8.366 7.827a.577.577 0 01-.789.842l-1.048-.98v7.578a.577.577 0 01-.577.577h-4.327a.577.577 0 01-.576-.577V11.79H7.635v3.634a.577.577 0 01-.577.577H2.75a.577.577 0 01-.577-.577V7.721L.967 8.829a.575.575 0 01-.815-.035.577.577 0 01.035-.815L8.706.152a.577.577 0 01.784.004zM3.327 6.66v8.185H6.48V11.21c0-.318.258-.576.577-.576h4.057c.32 0 .577.258.577.576v3.635h3.173v-8.08L9.093 1.364 3.327 6.66z" fill="#00A0E3"/></svg>