<svg width="50" height="50" fill="none" xmlns="http://www.w3.org/2000/svg"><path fill-rule="evenodd" clip-rule="evenodd" d="M25 0C11.195 0 0 11.195 0 25s11.195 25 25 25 25-11.195 25-25S38.805 0 25 0zm12.996 27.286c.864-7.27-.415-11.858-2.72-13.934v-.001c-3.722-3.545-16.292-4.07-20.745.159-2 2.069-2.704 5.104-2.781 8.863-.078 3.76-.17 10.802 6.393 12.712h.006l-.006 2.918s-.044 1.182.71 1.42c.864.28 1.255-.27 3.941-3.478 4.491.39 7.941-.503 8.333-.633.907-.304 6.04-.983 6.87-8.026zm-14.76 6.606s-2.842 3.545-3.726 4.465c-.29.3-.607.272-.602-.322 0-.39.022-4.843.022-4.843-5.564-1.595-5.236-7.592-5.176-10.729.06-3.138.635-5.709 2.328-7.44 3.907-3.662 14.927-2.843 17.735-.204 3.433 3.043 2.21 11.64 2.218 11.933-.705 5.879-4.864 6.252-5.629 6.506-.327.108-3.36.889-7.17.634zm1.573-18.18c-.464 0-.464.724 0 .73 3.603.028 6.57 2.539 6.603 7.145 0 .486.711.48.706-.006h-.002c-.038-4.963-3.278-7.84-7.306-7.868zm4.74 7.112c-.011.48.699.503.705.016.06-2.736-1.628-4.99-4.799-5.228-.464-.034-.513.696-.05.73 2.75.208 4.199 2.085 4.143 4.482zm-.76 3.113c-.596-.345-1.203-.13-1.454.208l-.524.68c-.267.344-.765.299-.765.299-3.636-.962-4.607-4.766-4.607-4.766s-.045-.515.288-.791l.656-.543c.328-.26.536-.888.201-1.504-.892-1.613-1.492-2.169-1.797-2.596-.32-.401-.803-.492-1.305-.22h-.01c-1.044.61-2.187 1.752-1.82 2.928.623 1.24 1.768 5.193 5.42 8.179 1.717 1.412 4.433 2.86 5.586 3.194l.011.017c1.136.378 2.241-.808 2.831-1.883v-.008c.262-.52.175-1.012-.208-1.335-.677-.66-1.7-1.39-2.504-1.86zm-2.837-5.633c1.159.068 1.72.673 1.781 1.917.022.485.727.452.706-.034-.077-1.624-.924-2.528-2.449-2.613-.464-.027-.507.702-.038.73z" fill="#fff"/></svg>